<svg width="203" height="67" viewBox="0 0 203 67" fill="none" xmlns="http://www.w3.org/2000/svg">
<g filter="url(#filter0_d_2098_1979)">
<path d="M5.76 49V15.496H9.792V45.496H25.68V49H5.76ZM90.9038 24.232H94.7438V28.264H94.9358C96.5358 25.192 99.0798 23.656 102.568 23.656C105.608 23.656 107.976 24.792 109.672 27.064C111.4 29.336 112.264 32.52 112.264 36.616C112.264 40.712 111.4 43.896 109.672 46.168C107.976 48.44 105.608 49.576 102.568 49.576C99.0798 49.576 96.5358 48.04 94.9358 44.968H94.7438V58.6H90.9038V24.232ZM101.08 46.168C103.32 46.168 105.048 45.496 106.264 44.152C107.512 42.776 108.136 40.968 108.136 38.728V34.504C108.136 32.264 107.512 30.472 106.264 29.128C105.048 27.752 103.32 27.064 101.08 27.064C100.216 27.064 99.3998 27.176 98.6318 27.4C97.8638 27.624 97.1918 27.96 96.6158 28.408C96.0398 28.824 95.5758 29.352 95.2238 29.992C94.9038 30.6 94.7438 31.32 94.7438 32.152V41.08C94.7438 41.912 94.9038 42.648 95.2238 43.288C95.5758 43.896 96.0398 44.424 96.6158 44.872C97.1918 45.288 97.8638 45.608 98.6318 45.832C99.3998 46.056 100.216 46.168 101.08 46.168ZM127.077 49L118.197 24.232H122.085L125.637 34.6L129.477 45.784H129.669L133.509 34.6L137.061 24.232H140.853L131.973 49H127.077ZM159.842 18.76C158.722 18.76 157.938 18.536 157.49 18.088C157.042 17.608 156.818 17.016 156.818 16.312V15.544C156.818 14.84 157.042 14.264 157.49 13.816C157.938 13.336 158.722 13.096 159.842 13.096C160.962 13.096 161.746 13.336 162.194 13.816C162.642 14.264 162.866 14.84 162.866 15.544V16.312C162.866 17.016 162.642 17.608 162.194 18.088C161.746 18.536 160.962 18.76 159.842 18.76ZM148.994 45.736H157.922V27.496H148.994V24.232H161.762V45.736H170.114V49H148.994V45.736ZM187.52 49.576C185.728 49.576 184.112 49.272 182.672 48.664C181.264 48.056 180.048 47.192 179.023 46.072C178.032 44.92 177.264 43.56 176.72 41.992C176.176 40.392 175.904 38.616 175.904 36.664C175.904 34.68 176.176 32.888 176.72 31.288C177.296 29.688 178.08 28.328 179.072 27.208C180.064 26.056 181.248 25.176 182.624 24.568C184.032 23.96 185.584 23.656 187.28 23.656C188.944 23.656 190.448 23.96 191.792 24.568C193.168 25.176 194.336 26.024 195.296 27.112C196.256 28.168 196.992 29.432 197.504 30.904C198.016 32.376 198.272 33.992 198.272 35.752V37.576H179.936V38.728C179.936 39.816 180.112 40.824 180.464 41.752C180.816 42.68 181.312 43.48 181.952 44.152C182.624 44.824 183.424 45.352 184.352 45.736C185.312 46.088 186.368 46.264 187.52 46.264C189.184 46.264 190.624 45.88 191.84 45.112C193.056 44.344 193.984 43.288 194.624 41.944L197.456 43.864C196.72 45.528 195.488 46.904 193.76 47.992C192.064 49.048 189.984 49.576 187.52 49.576ZM187.28 26.824C186.224 26.824 185.248 27.016 184.352 27.4C183.456 27.784 182.672 28.312 182 28.984C181.36 29.656 180.848 30.456 180.464 31.384C180.112 32.28 179.936 33.272 179.936 34.36V34.696H194.144V34.168C194.144 33.08 193.968 32.088 193.616 31.192C193.296 30.296 192.832 29.528 192.224 28.888C191.648 28.216 190.928 27.704 190.064 27.352C189.232 27 188.304 26.824 187.28 26.824Z" fill="#1A1A1C"/>
</g>
<path d="M66.1724 28.0403L50.2412 43.9618L51.536 45.2707L67.4672 29.3492L66.1724 28.0403Z" fill="#FFD801"/>
<path d="M42.9162 47.1544C37.3553 47.1544 32.833 42.5992 32.833 37.0017C32.833 31.4043 37.357 26.8491 42.9162 26.8491C45.6089 26.8491 48.0523 27.9243 49.8629 29.6608L49.8647 29.6504L49.9575 29.7318L53.5272 33.3088H50.2515V35.1544H56.6687V28.693H54.8357V32.0137L51.2523 28.4229L51.2437 28.4315C49.0926 26.3124 46.1557 25 42.9179 25C36.3477 25 31 30.3828 31 37C31 43.6172 36.3459 49 42.9179 49C46.307 49 49.3608 47.5612 51.5343 45.2672L50.2395 43.9618C48.3996 45.9217 45.8015 47.1544 42.9179 47.1544H42.9162Z" fill="#FFD801"/>
<path d="M74.0839 25.0017C71.0489 25.0017 68.284 26.1583 66.1793 28.0472L67.4741 29.3509C69.2452 27.7961 71.5545 26.8474 74.0839 26.8474C79.6447 26.8474 84.167 31.4025 84.167 37C84.167 42.5975 79.643 47.1526 74.0839 47.1526C71.4014 47.1526 68.9666 46.0861 67.1577 44.36L67.1543 44.3773L61.0827 38.2864L59.781 39.5866L65.8595 45.6845L65.8698 45.6741C68.0106 47.7292 70.8993 49 74.0821 49C80.6524 49 86 43.6172 86 37C86 30.3828 80.6541 25 74.0821 25L74.0839 25.0017Z" fill="#FFD801"/>
<defs>
<filter id="filter0_d_2098_1979" x="1.76001" y="13.096" width="200.511" height="53.504" filterUnits="userSpaceOnUse" color-interpolation-filters="sRGB">
<feFlood flood-opacity="0" result="BackgroundImageFix"/>
<feColorMatrix in="SourceAlpha" type="matrix" values="0 0 0 0 0 0 0 0 0 0 0 0 0 0 0 0 0 0 127 0" result="hardAlpha"/>
<feOffset dy="4"/>
<feGaussianBlur stdDeviation="2"/>
<feComposite in2="hardAlpha" operator="out"/>
<feColorMatrix type="matrix" values="0 0 0 0 0 0 0 0 0 0 0 0 0 0 0 0 0 0 0.25 0"/>
<feBlend mode="normal" in2="BackgroundImageFix" result="effect1_dropShadow_2098_1979"/>
<feBlend mode="normal" in="SourceGraphic" in2="effect1_dropShadow_2098_1979" result="shape"/>
</filter>
</defs>
</svg>
